<?xml version="1.0" encoding="UTF-8"?>
<svg width="177px" height="32px" viewBox="0 0 177 32" version="1.1" xmlns="http://www.w3.org/2000/svg" xmlns:xlink="http://www.w3.org/1999/xlink">
    <g id="BLDRS-outlines" transform="translate(1, 1)" stroke="#FEFEFE" fill="none" fill-rule="evenodd" stroke-linecap="round" stroke-linejoin="round">
        <path d="M145.415094,29.490566 L145.415094,10.1698113 L164.735849,10.1698113 C170.071094,10.1698113 174.396226,14.4949434 174.396226,19.8301887 C174.396226,25.165434 170.071094,29.490566 164.735849,29.490566 L145.415094,29.490566 Z" id="S-bottom" stroke-width="2"></path>
        <path d="M174.396226,19.8301887 L174.396226,0.509433962 L155.075472,0.509433962 C149.740226,0.509433962 145.415094,4.83456604 145.415094,10.1698113 C145.415094,15.5050566 149.740226,19.8301887 155.075472,19.8301887 L174.396226,19.8301887 Z" id="S-top" stroke-width="2"></path>
        <polygon id="R-leg" stroke-width="2" points="138.169811 29.490566 109.188679 29.490566 109.188679 0.509433962"></polygon>
        <path d="M109.188679,19.8301887 L109.188679,0.509433962 L128.509434,0.509433962 C133.844679,0.509433962 138.169811,4.83456604 138.169811,10.1698113 C138.169811,15.5050566 133.844679,19.8301887 128.509434,19.8301887 L109.188679,19.8301887 Z" id="R-bowl" stroke-width="2"></path>
        <path d="M87.4528302,0.509433962 C95.4558491,0.509433962 101.943396,6.99698113 101.943396,15 C101.943396,23.0030189 95.4558491,29.490566 87.4528302,29.490566 C79.4498113,29.490566 72.9622642,23.0030189 72.9622642,15 C72.9622642,6.99698113 79.4498113,0.509433962 87.4528302,0.509433962 Z" id="D-bowl" stroke-width="2"></path>
        <polygon id="D-stem" stroke-width="2" points="72.9622642 29.490566 87.4528302 29.490566 87.4528302 0.509433962 72.9622642 0.509433962"></polygon>
        <polygon id="L-stroke" stroke-width="2" points="36.7358491 29.490566 65.7169811 29.490566 65.7169811 15 36.7358491 15"></polygon>
        <polygon id="L-stem" stroke-width="2" points="36.7358491 29.490566 51.2264151 29.490566 51.2264151 0.509433962 36.7358491 0.509433962"></polygon>
        <path d="M0.509433962,29.490566 L0.509433962,10.1698113 L19.8301887,10.1698113 C25.165434,10.1698113 29.490566,14.4949434 29.490566,19.8301887 C29.490566,25.165434 25.165434,29.490566 19.8301887,29.490566 L0.509433962,29.490566 Z" id="B-bottom" stroke-width="2"></path>
        <path d="M0.509433962,19.8301887 L0.509433962,0.509433962 L19.8301887,0.509433962 C25.165434,0.509433962 29.490566,4.83456604 29.490566,10.1698113 C29.490566,15.5050566 25.165434,19.8301887 19.8301887,19.8301887 L0.509433962,19.8301887 Z" id="B-top" stroke-width="2"></path>
    </g>
</svg>
